<svg xmlns="http://www.w3.org/2000/svg" viewBox="0 0 32 32">
  <defs>
    <linearGradient id="liquid" x1="0" y1="0" x2="0" y2="1">
      <stop offset="0%" stop-color="#38bdf8"/>
      <stop offset="100%" stop-color="#6366f1"/>
    </linearGradient>
  </defs>
  <!-- Flask body -->
  <path d="M12 3 L12 12 L5 26 Q4 28 6 29 L26 29 Q28 28 27 26 L20 12 L20 3 Z" fill="none" stroke="#334155" stroke-width="1.5" stroke-linejoin="round"/>
  <!-- Liquid -->
  <path d="M8.5 20 L23.5 20 L27 26 Q28 28 26 29 L6 29 Q4 28 5 26 Z" fill="url(#liquid)" opacity="0.85"/>
  <!-- Bubbles -->
  <circle cx="13" cy="24" r="1.2" fill="white" opacity="0.5"/>
  <circle cx="18" cy="22" r="0.8" fill="white" opacity="0.4"/>
  <circle cx="15" cy="26" r="0.6" fill="white" opacity="0.3"/>
  <!-- Flask neck -->
  <rect x="12" y="2" width="8" height="2" rx="1" fill="#334155"/>
  <!-- Atom symbol on flask -->
  <ellipse cx="16" cy="16" rx="3" ry="1.2" fill="none" stroke="#f59e0b" stroke-width="0.8" transform="rotate(0 16 16)"/>
  <ellipse cx="16" cy="16" rx="3" ry="1.2" fill="none" stroke="#f59e0b" stroke-width="0.8" transform="rotate(60 16 16)"/>
  <ellipse cx="16" cy="16" rx="3" ry="1.2" fill="none" stroke="#f59e0b" stroke-width="0.8" transform="rotate(-60 16 16)"/>
  <circle cx="16" cy="16" r="1" fill="#f59e0b"/>
</svg>
